<?xml version="1.0" standalone="no"?>
<!DOCTYPE svg PUBLIC "-//W3C//DTD SVG 20010904//EN"
 "http://www.w3.org/TR/2001/REC-SVG-20010904/DTD/svg10.dtd">
<svg version="1.0" xmlns="http://www.w3.org/2000/svg"
 width="297.000000pt" height="73.000000pt" viewBox="0 0 297.000000 73.000000"
 preserveAspectRatio="xMidYMid meet">
<metadata>
Created by potrace 1.16, written by Peter Selinger 2001-2019
</metadata>
<g transform="translate(0.000000,73.000000) scale(0.100000,-0.100000)"
fill="#fff" stroke="none">
<path d="M1730 675 c0 -13 22 -15 135 -15 l135 0 0 -285 0 -285 -135 0 c-113
0 -135 -2 -135 -15 0 -13 23 -15 150 -15 l150 0 0 315 0 315 -150 0 c-127 0
-150 -2 -150 -15z"/>
<path d="M970 365 l0 -315 150 0 c127 0 150 2 150 15 0 13 -22 15 -135 15
l-135 0 0 285 0 285 135 0 c113 0 135 2 135 15 0 13 -23 15 -150 15 l-150 0 0
-315z"/>
<path d="M254 535 c-3 -8 -3 -19 1 -25 4 -6 111 -10 316 -10 l309 0 0 25 0 25
-310 0 c-262 0 -311 -2 -316 -15z"/>
<path d="M2110 515 l0 -25 313 2 c304 3 312 3 312 23 0 20 -8 20 -312 23
l-313 2 0 -25z"/>
<path d="M1440 493 c-25 -9 -46 -17 -48 -18 -3 -3 -16 -147 -16 -195 -1 -25 3
-35 14 -35 12 0 16 17 18 80 1 44 4 90 7 103 10 42 118 71 132 36 7 -18 -34
-55 -71 -64 -12 -3 -22 -14 -24 -24 -3 -15 1 -16 32 -10 40 7 86 -15 86 -42 0
-9 -14 -29 -30 -46 -27 -27 -34 -29 -71 -23 -36 6 -40 5 -37 -11 3 -15 12 -19
45 -18 51 1 89 24 110 69 20 43 7 81 -32 91 l-25 6 25 30 c29 34 31 50 9 72
-19 20 -65 19 -124 -1z"/>
<path d="M64 395 c-3 -8 -3 -19 1 -25 4 -7 139 -10 411 -10 l404 0 0 25 0 25
-405 0 c-345 0 -406 -2 -411 -15z"/>
<path d="M2110 375 l0 -25 408 2 c399 3 407 3 407 23 0 20 -8 20 -407 23
l-408 2 0 -25z"/>
<path d="M264 245 c-3 -8 -3 -19 1 -25 4 -6 109 -10 311 -10 l304 0 0 25 0 25
-305 0 c-258 0 -306 -2 -311 -15z"/>
<path d="M2110 225 l0 -25 308 2 c299 3 307 3 307 23 0 20 -8 20 -307 23
l-308 2 0 -25z"/>
</g>
</svg>
